<svg version="1.1" id="Layer_1" xmlns="http://www.w3.org/2000/svg" xmlns:xlink="http://www.w3.org/1999/xlink" x="0px" y="0px"
	 width="100%" viewBox="0 0 500 500" enable-background="new 0 0 500 500" xml:space="preserve">
<path fill="#FEFEFF" opacity="1.000000" stroke="none" 
	d="
M264.000000,501.000000 
	C176.000015,501.000000 88.500038,501.000000 1.000047,501.000000 
	C1.000031,334.333405 1.000031,167.666794 1.000016,1.000136 
	C167.666565,1.000091 334.333130,1.000091 500.999756,1.000046 
	C500.999847,167.666519 500.999847,334.333038 500.999939,500.999786 
	C422.166656,501.000000 343.333344,501.000000 264.000000,501.000000 
M171.894852,133.317184 
	C171.879562,123.652100 171.885529,113.986893 171.834015,104.321999 
	C171.821167,101.911964 172.467697,99.176125 168.493240,98.938927 
	C164.576019,98.705132 164.336868,101.042847 164.029922,103.947891 
	C163.521927,108.755959 162.686615,113.529449 161.812820,119.528519 
	C156.907333,113.622253 153.254700,108.689377 149.060852,104.270103 
	C133.222015,87.579933 114.118294,79.448647 91.012970,84.174789 
	C74.288811,87.595673 61.110291,97.391464 51.292229,110.954094 
	C24.745728,147.625305 18.970058,188.355835 32.223431,230.993713 
	C49.022034,285.037140 108.853813,293.586365 144.054413,271.225159 
	C157.761169,262.517944 166.904922,250.069061 172.866394,235.166138 
	C174.550095,230.957123 172.956863,229.214218 168.370224,228.761292 
	C163.637268,228.293915 161.186493,230.778610 158.706131,234.301025 
	C139.055557,262.207184 95.331146,264.349823 72.805679,238.659103 
	C62.237755,226.606216 57.811749,212.199692 56.587940,196.593842 
	C54.541080,170.492599 59.531223,146.132568 75.813202,125.052208 
	C89.824005,106.912361 108.717140,100.393150 127.633461,106.739532 
	C142.395554,111.692184 151.957642,122.631935 159.141785,135.819153 
	C161.220474,139.634796 163.581451,141.809387 167.670166,142.023621 
	C166.768600,146.381226 165.305038,150.711884 165.094681,155.102615 
	C164.763382,162.017685 169.643372,167.005875 176.178329,167.419693 
	C182.334076,167.809509 187.104279,163.273712 188.547211,156.733704 
	C189.333359,153.170517 190.629654,149.032654 193.127686,146.663956 
	C200.457031,139.714050 208.030197,132.814499 216.389420,127.210098 
	C226.720566,120.283638 238.404831,116.204666 251.199341,116.779785 
	C260.258636,117.186996 265.120361,121.397591 267.163422,130.279907 
	C269.475464,140.331482 265.478485,148.951828 260.763062,157.264297 
	C250.450821,175.442947 235.607910,189.860962 221.210052,204.686905 
	C206.485229,219.849533 192.152756,235.394913 177.746063,250.863586 
	C173.862488,255.033432 172.065857,259.916412 174.823318,265.494019 
	C177.573929,271.057739 182.504730,272.140900 188.208939,272.213379 
	C224.940536,272.679962 261.396332,269.639984 297.630219,263.783508 
	C300.153229,263.375732 302.851105,262.366241 304.865356,260.841095 
	C309.194946,257.562836 310.260468,251.736343 308.010834,246.863785 
	C305.623291,241.692505 300.520966,239.259125 294.282715,240.347824 
	C268.326904,244.877594 242.174744,247.433990 215.840317,248.144775 
	C214.657990,248.176712 213.469604,247.984055 212.284058,247.895996 
	C212.004501,247.436951 211.724960,246.977905 211.445419,246.518845 
	C221.279907,237.075302 231.282730,227.799728 240.910583,218.150024 
	C256.572327,202.452805 271.794342,186.344421 282.605347,166.706390 
	C287.804871,157.261490 291.165161,147.265762 291.396820,136.339493 
	C291.826813,116.057793 279.844635,98.731529 261.872284,94.458961 
	C248.112976,91.187958 234.735214,93.582260 221.733734,98.483246 
	C201.965561,105.934990 185.799438,118.437271 171.894852,133.317184 
M342.479156,234.500214 
	C342.479156,216.554749 342.479156,198.609283 342.479156,180.574005 
	C371.632263,180.574005 400.167786,180.574005 428.654236,180.574005 
	C428.654236,212.089645 428.654236,243.199631 428.654236,274.868652 
	C423.361603,274.868652 418.293060,274.868652 413.326019,274.868652 
	C413.326019,277.660797 413.326019,279.865326 413.326019,281.965637 
	C434.332153,281.965637 454.945404,281.965637 475.685974,281.965637 
	C475.685974,279.510834 475.685974,277.297089 475.685974,274.651215 
	C470.450714,274.651215 465.523163,274.651215 460.443237,274.651215 
	C460.443237,213.141571 460.443237,152.070709 460.443237,90.545761 
	C465.671509,90.545761 470.615631,90.545761 475.771606,90.545761 
	C475.771606,87.855881 475.771606,85.620667 475.771606,83.234711 
	C454.790497,83.234711 434.040497,83.234711 413.232544,83.234711 
	C413.232544,85.705879 413.232544,87.933296 413.232544,90.577225 
	C418.467041,90.577225 423.414948,90.577225 428.551575,90.577225 
	C428.551575,117.043289 428.551575,143.086884 428.551575,169.118500 
	C399.780487,169.118500 371.363831,169.118500 342.786835,169.118500 
	C342.786835,142.878967 342.786835,116.980927 342.786835,90.400467 
	C348.112061,90.400467 353.153137,90.400467 358.159851,90.400467 
	C358.159851,87.598877 358.159851,85.483261 358.159851,83.243065 
	C337.158539,83.243065 316.408234,83.243065 295.553741,83.243065 
	C295.553741,85.704857 295.553741,87.909279 295.553741,90.595291 
	C300.801270,90.595291 305.722443,90.595291 310.798706,90.595291 
	C310.798706,152.170349 310.798706,213.253113 310.798706,274.976532 
	C305.538940,274.976532 300.493225,274.976532 295.542084,274.976532 
	C295.542084,277.700439 295.542084,279.777771 295.542084,281.860809 
	C316.604248,281.860809 337.333069,281.860809 358.151154,281.860809 
	C358.151154,279.418701 358.151154,277.315674 358.151154,274.772461 
	C352.965118,274.772461 348.024200,274.772461 342.478882,274.772461 
	C342.478882,261.393066 342.478882,248.446655 342.479156,234.500214 
M297.123840,330.501221 
	C297.123840,336.267548 297.123840,342.033844 297.123840,347.771729 
	C300.214233,347.771729 302.649261,347.771729 305.678772,347.771729 
	C305.678772,343.151001 305.678772,338.761261 305.678772,334.455383 
	C310.171692,334.455383 314.056213,334.455383 318.297424,334.455383 
	C318.297424,339.100983 318.297424,343.374664 318.297424,347.826355 
	C321.107788,347.826355 323.552155,347.826355 326.193237,347.826355 
	C326.193237,336.614410 326.193237,325.543640 326.193237,314.427856 
	C323.463287,314.427856 321.038727,314.427856 318.116425,314.427856 
	C318.116425,318.773346 318.116425,322.851318 318.116425,327.074219 
	C313.726593,327.074219 309.844635,327.074219 305.440918,327.074219 
	C305.440918,322.673157 305.440918,318.589020 305.440918,314.410339 
	C302.490570,314.410339 300.069122,314.410339 297.123871,314.410339 
	C297.123871,319.607025 297.123871,324.555511 297.123840,330.501221 
M387.299805,323.806030 
	C386.730865,318.096863 383.146637,315.062622 377.865906,314.565338 
	C372.491516,314.059204 367.032318,314.453461 361.459686,314.453461 
	C361.459686,325.752502 361.459686,336.774445 361.459686,347.762085 
	C364.226379,347.762085 366.657684,347.762085 369.270111,347.762085 
	C369.458649,343.558990 369.636749,339.588440 369.814880,335.617889 
	C370.305725,335.514740 370.796539,335.411621 371.287384,335.308472 
	C372.548889,337.528839 373.834167,339.736145 375.067566,341.972046 
	C378.883087,348.888763 378.875366,348.893005 387.207977,347.366760 
	C384.870789,343.151672 382.582184,339.024170 380.312073,334.930084 
	C386.066650,331.285706 386.690338,330.338043 387.299805,323.806030 
M176.861938,335.465210 
	C179.683121,344.642670 185.543121,348.701294 195.083649,348.085510 
	C202.260468,347.622314 207.510239,343.197266 208.595306,336.523651 
	C204.716217,336.471161 201.038879,335.536255 197.680679,339.160400 
	C194.901443,342.159729 189.734909,341.097656 187.007431,337.922272 
	C183.975998,334.393005 184.062256,327.477020 187.180283,324.065216 
	C189.917740,321.069855 195.215836,320.187714 197.932693,323.156525 
	C201.269150,326.802399 204.908081,325.700653 208.999023,325.624054 
	C208.784637,324.655853 208.743866,323.997284 208.496918,323.428192 
	C205.232864,315.906372 196.889893,312.172272 188.522491,314.460083 
	C179.765549,316.854462 175.258881,324.565430 176.861938,335.465210 
M221.805923,333.496948 
	C221.805923,338.249329 221.805923,343.001678 221.805923,347.726410 
	C224.870819,347.726410 227.276154,347.726410 230.208618,347.726410 
	C230.208618,343.124542 230.208618,338.789032 230.208618,333.480347 
	C232.898956,337.015900 235.249191,339.454041 236.828644,342.317352 
	C239.985947,348.041138 244.623978,349.091949 250.894760,347.506073 
	C246.489044,341.845703 242.250259,336.399780 237.919769,330.836060 
	C242.113251,325.392242 246.176147,320.117920 250.368820,314.675171 
	C243.953766,313.020996 239.751373,314.611084 236.792297,319.872223 
	C235.171967,322.753113 232.763168,325.190552 229.852203,328.929657 
	C229.852203,323.137085 229.852203,318.878876 229.852203,314.416016 
	C227.099640,314.416016 224.704880,314.416016 221.805862,314.416016 
	C221.805862,320.610443 221.805862,326.554138 221.805923,333.496948 
M92.174576,323.466278 
	C95.455101,321.031250 99.406654,320.172638 102.228195,323.070557 
	C105.661293,326.596588 109.303207,325.728577 113.202415,325.674255 
	C111.610321,317.584656 104.735634,313.119965 95.518578,314.001648 
	C87.026588,314.813965 81.001366,321.717316 80.910805,330.738403 
	C80.816330,340.150940 86.718796,347.210297 95.383873,348.048218 
	C104.768517,348.955719 111.509735,344.689178 113.130753,336.616699 
	C109.210541,336.360016 105.647301,335.673462 102.199509,339.127106 
	C98.725357,342.607117 92.539520,340.824707 90.421921,336.288483 
	C88.447273,332.058533 88.716888,327.883881 92.174576,323.466278 
M272.519531,347.612366 
	C276.770203,347.612366 281.020844,347.612366 285.242798,347.612366 
	C285.242798,344.948822 285.242798,343.042725 285.242798,340.717224 
	C281.340546,340.717224 277.775940,340.717224 274.213593,340.717224 
	C277.602264,336.308075 281.307281,332.476288 283.790527,327.971069 
	C286.155090,323.681274 285.675018,318.884949 281.945679,315.078400 
	C278.849518,311.918152 272.488281,311.046021 267.919006,313.200714 
	C263.455414,315.305634 261.380432,318.945374 261.463654,324.101562 
	C264.009521,324.101562 266.299744,324.101562 268.678436,324.101562 
	C268.888458,323.697693 269.004944,323.129456 269.352631,322.863678 
	C270.971802,321.626038 272.654938,320.472046 274.315216,319.288116 
	C274.931946,321.446198 276.069183,323.622772 275.993439,325.756287 
	C275.937317,327.338287 274.541077,329.087402 273.327454,330.370026 
	C270.595886,333.256927 267.806732,336.161011 264.665527,338.568115 
	C261.635895,340.889740 260.337921,343.386749 261.890320,347.612152 
	C264.981140,347.612152 268.260986,347.612152 272.519531,347.612366 
M410.415375,327.698395 
	C405.552551,326.728485 409.058777,323.412140 407.962097,320.852539 
	C412.353516,320.852539 416.118988,320.852539 419.986877,320.852539 
	C419.986877,318.444305 419.986877,316.397705 419.986877,314.425293 
	C413.155151,314.425293 406.718994,314.425293 400.156403,314.425293 
	C400.156403,325.717896 400.156403,336.739990 400.156403,347.653381 
	C407.061005,347.653381 413.609711,347.653381 419.991211,347.653381 
	C419.991211,345.379547 419.991211,343.470245 419.991211,341.153198 
	C415.849945,341.153198 412.092743,341.153198 408.193420,341.153198 
	C408.193420,338.651123 408.193420,336.563843 408.193420,334.019287 
	C411.795105,334.019287 415.208038,334.019287 418.664001,334.019287 
	C418.664001,331.690796 418.664001,329.826141 418.664001,327.705322 
	C416.020721,327.705322 413.702026,327.705322 410.415375,327.698395 
M134.129044,329.475372 
	C134.129044,324.410950 134.129044,319.346558 134.129044,314.419342 
	C130.985062,314.419342 128.715195,314.419342 126.297806,314.419342 
	C126.297806,325.690887 126.297806,336.711761 126.297806,347.695465 
	C132.666946,347.695465 138.728531,347.695465 144.730286,347.695465 
	C144.730286,345.626221 144.730286,343.866699 144.730286,341.510376 
	C141.097092,341.510376 137.718567,341.510376 134.129059,341.510376 
	C134.129059,337.428314 134.129059,333.945221 134.129044,329.475372 
M164.492722,333.492828 
	C164.492722,327.113953 164.492722,320.735077 164.492722,314.520264 
	C161.234924,314.520264 158.837326,314.520264 156.358032,314.520264 
	C156.358032,325.775116 156.358032,336.658752 156.358032,347.692078 
	C159.122391,347.692078 161.645523,347.692078 164.492386,347.692078 
	C164.492386,343.076599 164.492386,338.781982 164.492722,333.492828 
M340.755890,314.290131 
	C340.755890,325.430786 340.755890,336.571442 340.755890,347.719604 
	C342.858765,347.719604 345.266510,347.719604 347.574097,347.719604 
	C347.574097,336.388794 347.574097,325.347382 347.574097,314.184296 
	C345.334473,314.184296 343.505249,314.184296 340.755890,314.290131 
z"/>
<path fill="#1F3B8B" opacity="1.000000" stroke="none" 
	d="
M342.479004,235.000214 
	C342.478882,248.446655 342.478882,261.393066 342.478882,274.772461 
	C348.024200,274.772461 352.965118,274.772461 358.151154,274.772461 
	C358.151154,277.315674 358.151154,279.418701 358.151154,281.860809 
	C337.333069,281.860809 316.604248,281.860809 295.542084,281.860809 
	C295.542084,279.777771 295.542084,277.700439 295.542084,274.976532 
	C300.493225,274.976532 305.538940,274.976532 310.798706,274.976532 
	C310.798706,213.253113 310.798706,152.170349 310.798706,90.595291 
	C305.722443,90.595291 300.801270,90.595291 295.553741,90.595291 
	C295.553741,87.909279 295.553741,85.704857 295.553741,83.243065 
	C316.408234,83.243065 337.158539,83.243065 358.159851,83.243065 
	C358.159851,85.483261 358.159851,87.598877 358.159851,90.400467 
	C353.153137,90.400467 348.112061,90.400467 342.786835,90.400467 
	C342.786835,116.980927 342.786835,142.878967 342.786835,169.118500 
	C371.363831,169.118500 399.780487,169.118500 428.551575,169.118500 
	C428.551575,143.086884 428.551575,117.043289 428.551575,90.577225 
	C423.414948,90.577225 418.467041,90.577225 413.232544,90.577225 
	C413.232544,87.933296 413.232544,85.705879 413.232544,83.234711 
	C434.040497,83.234711 454.790497,83.234711 475.771606,83.234711 
	C475.771606,85.620667 475.771606,87.855881 475.771606,90.545761 
	C470.615631,90.545761 465.671509,90.545761 460.443237,90.545761 
	C460.443237,152.070709 460.443237,213.141571 460.443237,274.651215 
	C465.523163,274.651215 470.450714,274.651215 475.685974,274.651215 
	C475.685974,277.297089 475.685974,279.510834 475.685974,281.965637 
	C454.945404,281.965637 434.332153,281.965637 413.326019,281.965637 
	C413.326019,279.865326 413.326019,277.660797 413.326019,274.868652 
	C418.293060,274.868652 423.361603,274.868652 428.654236,274.868652 
	C428.654236,243.199631 428.654236,212.089645 428.654236,180.574005 
	C400.167786,180.574005 371.632263,180.574005 342.479156,180.574005 
	C342.479156,198.609283 342.479156,216.554749 342.479004,235.000214 
z"/>
<path fill="#F97418" opacity="1.000000" stroke="none" 
	d="
M172.063400,134.284943 
	C185.799438,118.437271 201.965561,105.934990 221.733734,98.483246 
	C234.735214,93.582260 248.112976,91.187958 261.872284,94.458961 
	C279.844635,98.731529 291.826813,116.057793 291.396820,136.339493 
	C291.165161,147.265762 287.804871,157.261490 282.605347,166.706390 
	C271.794342,186.344421 256.572327,202.452805 240.910583,218.150024 
	C231.282730,227.799728 221.279907,237.075302 211.445419,246.518845 
	C211.724960,246.977905 212.004501,247.436951 212.284058,247.895996 
	C213.469604,247.984055 214.657990,248.176712 215.840317,248.144775 
	C242.174744,247.433990 268.326904,244.877594 294.282715,240.347824 
	C300.520966,239.259125 305.623291,241.692505 308.010834,246.863785 
	C310.260468,251.736343 309.194946,257.562836 304.865356,260.841095 
	C302.851105,262.366241 300.153229,263.375732 297.630219,263.783508 
	C261.396332,269.639984 224.940536,272.679962 188.208939,272.213379 
	C182.504730,272.140900 177.573929,271.057739 174.823318,265.494019 
	C172.065857,259.916412 173.862488,255.033432 177.746063,250.863586 
	C192.152756,235.394913 206.485229,219.849533 221.210052,204.686905 
	C235.607910,189.860962 250.450821,175.442947 260.763062,157.264297 
	C265.478485,148.951828 269.475464,140.331482 267.163422,130.279907 
	C265.120361,121.397591 260.258636,117.186996 251.199341,116.779785 
	C238.404831,116.204666 226.720566,120.283638 216.389420,127.210098 
	C208.030197,132.814499 200.457031,139.714050 193.127686,146.663956 
	C190.629654,149.032654 189.333359,153.170517 188.547211,156.733704 
	C187.104279,163.273712 182.334076,167.809509 176.178329,167.419693 
	C169.643372,167.005875 164.763382,162.017685 165.094681,155.102615 
	C165.305038,150.711884 166.768600,146.381226 168.199860,141.610992 
	C173.021942,140.427917 171.351685,136.782104 172.063400,134.284943 
z"/>
<path fill="#203C8B" opacity="1.000000" stroke="none" 
	d="
M171.979126,133.801056 
	C171.351685,136.782104 173.021942,140.427917 168.349014,141.296783 
	C163.581451,141.809387 161.220474,139.634796 159.141785,135.819153 
	C151.957642,122.631935 142.395554,111.692184 127.633461,106.739532 
	C108.717140,100.393150 89.824005,106.912361 75.813202,125.052208 
	C59.531223,146.132568 54.541080,170.492599 56.587940,196.593842 
	C57.811749,212.199692 62.237755,226.606216 72.805679,238.659103 
	C95.331146,264.349823 139.055557,262.207184 158.706131,234.301025 
	C161.186493,230.778610 163.637268,228.293915 168.370224,228.761292 
	C172.956863,229.214218 174.550095,230.957123 172.866394,235.166138 
	C166.904922,250.069061 157.761169,262.517944 144.054413,271.225159 
	C108.853813,293.586365 49.022034,285.037140 32.223431,230.993713 
	C18.970058,188.355835 24.745728,147.625305 51.292229,110.954094 
	C61.110291,97.391464 74.288811,87.595673 91.012970,84.174789 
	C114.118294,79.448647 133.222015,87.579933 149.060852,104.270103 
	C153.254700,108.689377 156.907333,113.622253 161.812820,119.528519 
	C162.686615,113.529449 163.521927,108.755959 164.029922,103.947891 
	C164.336868,101.042847 164.576019,98.705132 168.493240,98.938927 
	C172.467697,99.176125 171.821167,101.911964 171.834015,104.321999 
	C171.885529,113.986893 171.879562,123.652100 171.979126,133.801056 
z"/>
<path fill="#27428F" opacity="1.000000" stroke="none" 
	d="
M297.123840,330.002625 
	C297.123871,324.555511 297.123871,319.607025 297.123871,314.410339 
	C300.069122,314.410339 302.490570,314.410339 305.440918,314.410339 
	C305.440918,318.589020 305.440918,322.673157 305.440918,327.074219 
	C309.844635,327.074219 313.726593,327.074219 318.116425,327.074219 
	C318.116425,322.851318 318.116425,318.773346 318.116425,314.427856 
	C321.038727,314.427856 323.463287,314.427856 326.193237,314.427856 
	C326.193237,325.543640 326.193237,336.614410 326.193237,347.826355 
	C323.552155,347.826355 321.107788,347.826355 318.297424,347.826355 
	C318.297424,343.374664 318.297424,339.100983 318.297424,334.455383 
	C314.056213,334.455383 310.171692,334.455383 305.678772,334.455383 
	C305.678772,338.761261 305.678772,343.151001 305.678772,347.771729 
	C302.649261,347.771729 300.214233,347.771729 297.123840,347.771729 
	C297.123840,342.033844 297.123840,336.267548 297.123840,330.002625 
z"/>
<path fill="#26418E" opacity="1.000000" stroke="none" 
	d="
M387.328003,324.178040 
	C386.690338,330.338043 386.066650,331.285706 380.312073,334.930084 
	C382.582184,339.024170 384.870789,343.151672 387.207977,347.366760 
	C378.875366,348.893005 378.883087,348.888763 375.067566,341.972046 
	C373.834167,339.736145 372.548889,337.528839 371.287384,335.308472 
	C370.796539,335.411621 370.305725,335.514740 369.814880,335.617889 
	C369.636749,339.588440 369.458649,343.558990 369.270111,347.762085 
	C366.657684,347.762085 364.226379,347.762085 361.459686,347.762085 
	C361.459686,336.774445 361.459686,325.752502 361.459686,314.453461 
	C367.032318,314.453461 372.491516,314.059204 377.865906,314.565338 
	C383.146637,315.062622 386.730865,318.096863 387.328003,324.178040 
M369.357788,323.674011 
	C369.357788,325.444611 369.357788,327.215179 369.357788,330.690186 
	C373.208069,329.160126 376.102051,328.230194 378.662323,326.730621 
	C379.005188,326.529785 378.122528,322.415863 377.003754,321.917328 
	C374.637390,320.862732 371.491821,319.304535 369.357788,323.674011 
z"/>
<path fill="#28438F" opacity="1.000000" stroke="none" 
	d="
M176.787628,335.065491 
	C175.258881,324.565430 179.765549,316.854462 188.522491,314.460083 
	C196.889893,312.172272 205.232864,315.906372 208.496918,323.428192 
	C208.743866,323.997284 208.784637,324.655853 208.999023,325.624054 
	C204.908081,325.700653 201.269150,326.802399 197.932693,323.156525 
	C195.215836,320.187714 189.917740,321.069855 187.180283,324.065216 
	C184.062256,327.477020 183.975998,334.393005 187.007431,337.922272 
	C189.734909,341.097656 194.901443,342.159729 197.680679,339.160400 
	C201.038879,335.536255 204.716217,336.471161 208.595306,336.523651 
	C207.510239,343.197266 202.260468,347.622314 195.083649,348.085510 
	C185.543121,348.701294 179.683121,344.642670 176.787628,335.065491 
z"/>
<path fill="#243F8D" opacity="1.000000" stroke="none" 
	d="
M221.805893,332.997406 
	C221.805862,326.554138 221.805862,320.610443 221.805862,314.416016 
	C224.704880,314.416016 227.099640,314.416016 229.852203,314.416016 
	C229.852203,318.878876 229.852203,323.137085 229.852203,328.929657 
	C232.763168,325.190552 235.171967,322.753113 236.792297,319.872223 
	C239.751373,314.611084 243.953766,313.020996 250.368820,314.675171 
	C246.176147,320.117920 242.113251,325.392242 237.919769,330.836060 
	C242.250259,336.399780 246.489044,341.845703 250.894760,347.506073 
	C244.623978,349.091949 239.985947,348.041138 236.828644,342.317352 
	C235.249191,339.454041 232.898956,337.015900 230.208618,333.480347 
	C230.208618,338.789032 230.208618,343.124542 230.208618,347.726410 
	C227.276154,347.726410 224.870819,347.726410 221.805923,347.726410 
	C221.805923,343.001678 221.805923,338.249329 221.805893,332.997406 
z"/>
<path fill="#26418E" opacity="1.000000" stroke="none" 
	d="
M91.895844,323.757324 
	C88.716888,327.883881 88.447273,332.058533 90.421921,336.288483 
	C92.539520,340.824707 98.725357,342.607117 102.199509,339.127106 
	C105.647301,335.673462 109.210541,336.360016 113.130753,336.616699 
	C111.509735,344.689178 104.768517,348.955719 95.383873,348.048218 
	C86.718796,347.210297 80.816330,340.150940 80.910805,330.738403 
	C81.001366,321.717316 87.026588,314.813965 95.518578,314.001648 
	C104.735634,313.119965 111.610321,317.584656 113.202415,325.674255 
	C109.303207,325.728577 105.661293,326.596588 102.228195,323.070557 
	C99.406654,320.172638 95.455101,321.031250 91.895844,323.757324 
z"/>
<path fill="#2A4490" opacity="1.000000" stroke="none" 
	d="
M272.030182,347.612244 
	C268.260986,347.612152 264.981140,347.612152 261.890320,347.612152 
	C260.337921,343.386749 261.635895,340.889740 264.665527,338.568115 
	C267.806732,336.161011 270.595886,333.256927 273.327454,330.370026 
	C274.541077,329.087402 275.937317,327.338287 275.993439,325.756287 
	C276.069183,323.622772 274.931946,321.446198 274.315186,319.288116 
	C272.654938,320.472046 270.971802,321.626038 269.352631,322.863678 
	C269.004944,323.129456 268.888458,323.697693 268.678436,324.101562 
	C266.299744,324.101562 264.009521,324.101562 261.463654,324.101562 
	C261.380432,318.945374 263.455414,315.305634 267.919006,313.200714 
	C272.488281,311.046021 278.849518,311.918152 281.945679,315.078400 
	C285.675018,318.884949 286.155090,323.681274 283.790527,327.971069 
	C281.307281,332.476288 277.602264,336.308075 274.213593,340.717224 
	C277.775940,340.717224 281.340546,340.717224 285.242798,340.717224 
	C285.242798,343.042725 285.242798,344.948822 285.242798,347.612366 
	C281.020844,347.612366 276.770203,347.612366 272.030182,347.612244 
z"/>
<path fill="#243F8D" opacity="1.000000" stroke="none" 
	d="
M410.899353,327.701843 
	C413.702026,327.705322 416.020721,327.705322 418.664001,327.705322 
	C418.664001,329.826141 418.664001,331.690796 418.664001,334.019287 
	C415.208038,334.019287 411.795105,334.019287 408.193420,334.019287 
	C408.193420,336.563843 408.193420,338.651123 408.193420,341.153198 
	C412.092743,341.153198 415.849945,341.153198 419.991211,341.153198 
	C419.991211,343.470245 419.991211,345.379547 419.991211,347.653381 
	C413.609711,347.653381 407.061005,347.653381 400.156403,347.653381 
	C400.156403,336.739990 400.156403,325.717896 400.156403,314.425293 
	C406.718994,314.425293 413.155151,314.425293 419.986877,314.425293 
	C419.986877,316.397705 419.986877,318.444305 419.986877,320.852539 
	C416.118988,320.852539 412.353516,320.852539 407.962097,320.852539 
	C409.058777,323.412140 405.552551,326.728485 410.899353,327.701843 
z"/>
<path fill="#1F3B8B" opacity="1.000000" stroke="none" 
	d="
M134.129059,329.968750 
	C134.129059,333.945221 134.129059,337.428314 134.129059,341.510376 
	C137.718567,341.510376 141.097092,341.510376 144.730286,341.510376 
	C144.730286,343.866699 144.730286,345.626221 144.730286,347.695465 
	C138.728531,347.695465 132.666946,347.695465 126.297806,347.695465 
	C126.297806,336.711761 126.297806,325.690887 126.297806,314.419342 
	C128.715195,314.419342 130.985062,314.419342 134.129044,314.419342 
	C134.129044,319.346558 134.129044,324.410950 134.129059,329.968750 
z"/>
<path fill="#26418E" opacity="1.000000" stroke="none" 
	d="
M164.492554,333.990112 
	C164.492386,338.781982 164.492386,343.076599 164.492386,347.692078 
	C161.645523,347.692078 159.122391,347.692078 156.358032,347.692078 
	C156.358032,336.658752 156.358032,325.775116 156.358032,314.520264 
	C158.837326,314.520264 161.234924,314.520264 164.492722,314.520264 
	C164.492722,320.735077 164.492722,327.113953 164.492554,333.990112 
z"/>
<path fill="#213C8B" opacity="1.000000" stroke="none" 
	d="
M341.215942,314.237213 
	C343.505249,314.184296 345.334473,314.184296 347.574097,314.184296 
	C347.574097,325.347382 347.574097,336.388794 347.574097,347.719604 
	C345.266510,347.719604 342.858765,347.719604 340.755890,347.719604 
	C340.755890,336.571442 340.755890,325.430786 341.215942,314.237213 
z"/>
<path fill="#EEF0F6" opacity="1.000000" stroke="none" 
	d="
M369.368805,323.253296 
	C371.491821,319.304535 374.637390,320.862732 377.003754,321.917328 
	C378.122528,322.415863 379.005188,326.529785 378.662323,326.730621 
	C376.102051,328.230194 373.208069,329.160126 369.357788,330.690186 
	C369.357788,327.215179 369.357788,325.444611 369.368805,323.253296 
z"/>
</svg>